# xmcd CD database file
#
# Track frame offsets:
#	150
#	32300
#	56186
#	99877
#	141100
#	177566
#	207806
#	236349
#	271968
#
# Disc length: 4070 seconds
#
# Revision: 1
# Processed by: cddbd v1.5.2PL0 Copyright (c) Steve Scherf et al.
# Submitted via: CDex 1.70beta2
#
DISCID=740fe409
DTITLE=Rory Gallagher - Last Of The Independants
DYEAR=1995
DGENRE=Blues
TTITLE0=The Continental OP
TTITLE1=Moonchild
TTITLE2=I Wonder Who
TTITLE3=Don't Start Me Talkin'
TTITLE4=Could've Had Religion
TTITLE5=Ghost Blues
TTITLE6=Out on a Western Plain
TTITLE7=Walkin Blues
TTITLE8=Tattoo'd Lady
EXTD=YEAR: 1995
EXTT0=
EXTT1=
EXTT2=
EXTT3=
EXTT4=
EXTT5=
EXTT6=
EXTT7=
EXTT8=
PLAYORDER=
